<?xml version="1.0" encoding="UTF-8" standalone="no"?>
<!-- Created with Inkscape (http://www.inkscape.org/) -->

<svg
   width="210mm"
   height="297mm"
   viewBox="0 0 210 297"
   version="1.1"
   id="svg5"
   inkscape:version="1.1 (c68e22c387, 2021-05-23)"
   sodipodi:docname="Logo.svg"
   xmlns:inkscape="http://www.inkscape.org/namespaces/inkscape"
   xmlns:sodipodi="http://sodipodi.sourceforge.net/DTD/sodipodi-0.dtd"
   xmlns="http://www.w3.org/2000/svg"
   xmlns:svg="http://www.w3.org/2000/svg">
  <sodipodi:namedview
     id="namedview7"
     pagecolor="#ffffff"
     bordercolor="#666666"
     borderopacity="1.0"
     inkscape:pageshadow="2"
     inkscape:pageopacity="0.0"
     inkscape:pagecheckerboard="0"
     inkscape:document-units="mm"
     showgrid="false"
     inkscape:zoom="0.72337262"
     inkscape:cx="253.67286"
     inkscape:cy="537.0676"
     inkscape:window-width="1920"
     inkscape:window-height="1001"
     inkscape:window-x="-9"
     inkscape:window-y="-9"
     inkscape:window-maximized="1"
     inkscape:current-layer="layer1" />
  <defs
     id="defs2" />
  <g
     inkscape:label="Ebene 1"
     inkscape:groupmode="layer"
     id="layer1">
    <path
       style="fill:#000000;stroke-width:0.264583"
       d="m 39.512364,98.454541 c -4.00354,-1.75443 -9.23704,-4.99076 -13.18635,-8.15428 -12.01198,-9.62199 -20.8041397,-23.36871 -24.3329397,-38.04505 -1.43930001,-5.98609 -1.84690001,-9.5224 -1.98227001,-17.197919 -0.11332,-6.425837 0.6629,-12.989297 2.41702001,-20.437508 l 0.70141,-2.978247 2.92925,-0.910368 C 9.0683543,9.79575 21.808334,5.922199 34.317324,2.139158 38.207664,0.962621 41.691504,0 42.059204,0 c 0.36769,0 3.614058,0.90129 7.214159,2.002867 3.60009,1.101577 10.23656,3.119586 14.74771,4.484464 4.51114,1.364878 10.14286,3.069136 12.51493,3.787238 2.37207,0.718103 4.34934,1.349235 4.39394,1.402517 0.21792,0.260328 2.08079,9.817939 2.57159,13.193749 0.42892,2.95021 0.54994,4.99774 0.52386,8.863537 -0.0584,8.649409 -0.53866,12.761879 -2.31125,19.789739 -4.70722,18.66286 -18.48731,35.69996 -35.698941,44.13659 -2.045098,1.00245 -3.831038,1.81633 -3.968748,1.80862 -0.13771,-0.008 -1.27805,-0.46436 -2.53409,-1.01478 z m 1.20664,-21.85555 c 0.22859,-0.48171 0.41561,-1.35611 0.41561,-1.9431 0,-1.68375 0.38711,-2.42464 1.26687,-2.42464 1.03068,0 2.688548,1.89947 2.710288,3.10527 0.005,0.25663 0.18323,0.69773 0.39688,0.9802 0.21365,0.28247 0.38846,0.72193 0.38846,0.97657 0,0.74509 0.35245,0.77155 1.8999,0.14262 1.747661,-0.71031 2.341641,-1.09946 3.973841,-2.60353 1.06558,-0.98193 1.41581,-1.58997 2.44739,-4.24891 1.49153,-3.84444 1.51736,-4.44314 0.24004,-5.56464 -0.53011,-0.46543 -1.17323,-0.96781 -1.42917,-1.11639 -0.25593,-0.14858 -1.39556,-0.98452 -2.5325,-1.85764 l -2.06716,-1.5875 -5.036479,-0.0364 c -5.71252,-0.0412 -5.75798,-0.0303 -8.53911,2.0486 -0.96696,0.72282 -2.37722,1.66843 -3.13391,2.10136 -1.38565,0.7928 -1.81077,1.39155 -2.4815,3.49509 -0.26744,0.83876 -0.24344,1.1902 0.15361,2.24896 0.25883,0.69017 0.54818,1.31439 0.643,1.38715 0.0948,0.0728 0.31328,0.39979 0.48545,0.72674 0.17217,0.32694 0.78531,0.83538 1.36253,1.12985 0.57722,0.29448 1.04949,0.65034 1.04949,0.79081 0,0.14047 0.52029,0.38641 1.15621,0.54653 0.6662,0.16775 2.03901,0.94706 3.23919,1.83881 2.31559,1.7205 2.51395,1.71255 3.39107,-0.13584 z m -6.88552,-17.9851 c 0.7414,-0.33442 1.64566,-0.69717 2.00946,-0.80609 0.3638,-0.10893 0.95912,-0.40432 1.32292,-0.65642 0.3638,-0.25211 1.21447,-0.7005 1.89038,-0.99643 1.10585,-0.48417 1.24728,-0.64676 1.41232,-1.62358 0.35726,-2.11464 -0.0121,-3.06594 -1.80582,-4.6505 -2.07779,-1.83554 -5.08053,-3.85275 -6.19178,-4.15958 -1.40537,-0.38804 -2.72463,0.10909 -4.0674,1.53271 -0.86865,0.92095 -2.84014,5.4999 -3.00172,6.97174 -0.0248,0.2259 -0.13593,0.72437 -0.24695,1.10771 -0.14315,0.49429 -0.043,1.00845 0.34453,1.76798 0.65963,1.29299 0.7201,1.33321 2.91372,1.93806 2.04662,0.56432 3.47427,0.45222 5.42034,-0.4256 z m 21.720919,0.56273 c 2.88036,-0.55056 4.26055,-1.26517 4.76952,-2.46946 0.26105,-0.61769 0.3717,-1.37338 0.28382,-1.93841 -0.19746,-1.26961 -1.57283,-5.52381 -2.58098,-7.9833 -0.80934,-1.97446 -0.82022,-2.05432 -0.39658,-2.91042 0.23958,-0.48413 0.58491,-1.05884 0.76741,-1.27712 0.56343,-0.67391 3.15432,-2.50479 4.99696,-3.53116 2.16571,-1.20631 4.02131,-2.810879 4.45139,-3.849189 0.37576,-0.90716 -0.009,-2.55708 -1.20546,-5.170737 -0.65753,-1.43624 -0.74313,-1.51635 -1.4657,-1.37184 -0.42206,0.0844 -1.52929,0.61301 -2.46051,1.17465 -1.87323,1.1298 -3.16792,1.32312 -5.67584,0.8475 -1.28635,-0.24395 -1.49301,-0.20957 -2.58439,0.43003 -0.65243,0.38234 -1.44225,1.04145 -1.75516,1.464677 -0.41234,0.55772 -0.75304,0.74802 -1.23795,0.69143 -0.62257,-0.0726 -0.67437,-0.18831 -0.74596,-1.665567 -0.0749,-1.54496 -0.0429,-1.63003 1.19419,-3.175 1.99777,-2.49503 2.46945,-2.64583 8.27545,-2.64583 2.69214,0 5.11871,-0.10801 5.39239,-0.24001 0.44885,-0.2165 0.48033,-0.44703 0.32132,-2.35361 -0.11489,-1.3777 -0.3438,-2.35353 -0.65745,-2.8027 -0.26465,-0.379 -0.55804,-1.00734 -0.65197,-1.396311 -0.29886,-1.23747 -1.5117,-2.34896 -3.7196,-3.40878 -1.17695,-0.56495 -2.97334,-1.21276 -3.99198,-1.43957 -1.01865,-0.22682 -2.09021,-0.51501 -2.38125,-0.64043 -0.88205,-0.3801 -2.66824,-0.81546 -3.34563,-0.81546 -0.73256,0 -2.75111,1.97185 -5.755561,5.62239 -1.288968,1.566161 -2.084508,2.315111 -2.459148,2.315111 -0.579,0 -2.14884,-1.480111 -4.18775,-3.948381 -1.17757,-1.42554 -2.92869,-3.16453 -3.5306,-3.50615 -0.82633,-0.46899 -7.24314,1.31948 -8.48606,2.36521 -0.86236,0.72556 -0.9342,0.90621 -0.93849,2.36011 -0.005,1.566501 -0.35133,2.659421 -1.00664,3.173311 -0.24894,0.19521 -1.60343,0.97882 -3.00996,1.74135 -2.87155,1.55676 -3.48338,2.18686 -2.6996,2.78021 0.38731,0.2932 0.95307,0.3304 2.61111,0.1717 1.16416,-0.11143 3.36682,-0.22634 4.89479,-0.25536 3.31734,-0.063 4.11954,0.25256 6.99747,2.75252 1.42263,1.2358 1.91511,1.85417 2.1788,2.73578 0.3813,1.27485 0.43546,5.725616 0.104,8.547396 -0.29332,2.49711 -0.20515,2.5724 2.63083,2.24637 1.23426,-0.14188 3.79192,-0.25702 5.683688,-0.25585 4.943231,0.003 7.805211,0.7982 7.805211,2.16855 0,0.57786 -1.23048,2.58781 -1.58425,2.58781 -0.10414,0 -0.5371,0.32742 -0.96212,0.7276 -0.42502,0.40018 -1.23259,1.08479 -1.794601,1.52136 -2.2424,1.74188 -2.73455,2.37847 -2.92839,3.78786 -0.10142,0.73741 -0.11126,1.57119 -0.0219,1.85284 0.31376,0.98858 4.839961,3.86417 7.793761,4.95153 1.21202,0.44617 0.92586,0.44306 3.06934,0.0333 z M 24.068994,36.746281 c 1.24696,-0.29141 3.11062,-0.495419 4.53575,-0.496509 2.84192,-0.002 2.95397,-0.11141 2.32694,-2.26834 -0.6314,-2.171897 -1.1433,-2.451567 -4.19516,-2.291937 -2.79059,0.14597 -2.91764,0.10567 -6.27438,-1.99002 -1.14565,-0.71525 -1.85639,-0.75415 -2.41737,-0.13229 -0.66546,0.73769 -1.52974,3.334647 -1.59176,4.782877 -0.13256,3.095279 1.895,3.733219 7.61598,2.396219 z"
       id="path21" />
  </g>
</svg>
