<?xml version="1.0" standalone="no"?>
<!DOCTYPE svg PUBLIC "-//W3C//DTD SVG 20010904//EN"
 "http://www.w3.org/TR/2001/REC-SVG-20010904/DTD/svg10.dtd">
<svg version="1.0" xmlns="http://www.w3.org/2000/svg"
 width="700.000000pt" height="700.000000pt" viewBox="0 0 700.000000 700.000000"
 preserveAspectRatio="xMidYMid meet">
<metadata>
Created by potrace 1.14, written by Peter Selinger 2001-2017
</metadata>
<g transform="translate(0.000000,700.000000) scale(0.100000,-0.100000)"
fill="#000000" stroke="none">
<path d="M3325 6865 c-170 -45 -283 -77 -700 -200 -143 -42 -289 -85 -325 -95
-36 -10 -297 -87 -580 -170 -283 -84 -535 -158 -560 -165 -25 -7 -108 -32
-185 -55 -77 -23 -158 -47 -180 -52 -22 -6 -43 -14 -47 -17 -6 -6 -50 -164
-62 -226 -3 -11 -14 -63 -26 -115 -27 -120 -58 -273 -65 -325 -3 -22 -10 -62
-15 -90 -9 -51 -16 -99 -26 -190 -3 -27 -7 -66 -10 -85 -14 -132 -19 -252 -19
-515 0 -449 14 -630 71 -955 31 -170 119 -497 183 -678 138 -389 337 -776 578
-1124 88 -127 268 -358 352 -453 55 -60 251 -263 295 -304 21 -20 53 -50 70
-66 59 -58 231 -202 336 -281 286 -217 626 -418 927 -547 136 -58 179 -71 188
-57 3 4 16 10 29 14 57 14 386 176 555 274 219 125 536 351 701 498 19 17 60
53 90 79 82 73 326 319 401 405 56 63 95 111 222 270 7 8 46 62 87 120 226
315 416 662 544 990 21 52 41 104 46 115 49 109 182 605 206 765 3 19 7 42 9
50 3 8 7 33 10 55 3 22 7 54 10 70 4 29 11 83 19 168 29 269 35 877 12 1062
-3 22 -8 63 -11 90 -3 28 -8 62 -10 78 -3 15 -7 42 -10 60 -3 17 -10 55 -15
82 -5 28 -12 64 -15 80 -10 62 -97 494 -117 583 -13 57 -28 96 -37 102 -19 9
-300 94 -851 255 -217 63 -424 124 -460 135 -767 229 -1405 409 -1440 407 -8
0 -87 -19 -175 -42z m910 -840 c22 -4 76 -19 120 -33 84 -27 85 -27 125 -35
298 -60 568 -207 615 -334 9 -26 30 -70 45 -98 32 -58 48 -127 56 -237 7 -95
1 -124 -28 -132 -13 -4 -120 -9 -238 -11 -300 -7 -460 -13 -495 -20 -73 -14
-135 -56 -211 -143 -100 -114 -111 -139 -107 -228 4 -105 14 -124 61 -124 32
0 45 7 87 51 28 28 80 69 118 91 74 44 115 50 214 28 63 -14 199 -11 241 6 17
7 32 11 32 9 0 -2 51 22 113 54 136 71 179 86 205 72 17 -9 51 -69 95 -171 52
-121 70 -236 44 -286 -35 -68 -151 -161 -322 -260 -147 -84 -301 -191 -338
-234 -40 -47 -77 -119 -77 -150 0 -12 23 -79 51 -148 79 -195 170 -479 176
-547 8 -108 -36 -184 -134 -227 -24 -10 -45 -19 -48 -19 -2 0 -22 -6 -43 -13
-40 -14 -164 -41 -238 -51 -80 -11 -342 110 -544 251 -112 78 -122 92 -122
162 0 146 30 192 216 337 22 17 60 48 85 69 25 22 67 55 93 73 49 36 103 110
118 164 23 79 -82 136 -290 157 -98 9 -499 9 -620 -1 -52 -4 -113 -9 -135 -11
-22 -2 -52 1 -67 6 -26 9 -33 29 -30 78 0 3 4 50 8 105 5 55 8 179 8 275 0
306 -8 327 -169 465 -131 113 -214 165 -291 182 -41 10 -355 9 -499 -1 -192
-13 -215 -12 -245 12 -54 44 -11 78 334 261 107 57 133 101 142 246 3 44 7 90
10 102 5 28 51 76 92 97 108 56 367 129 504 143 55 5 60 4 100 -30 65 -53 155
-143 238 -237 137 -155 237 -243 277 -245 23 0 73 46 189 177 172 194 252 275
317 324 61 45 64 46 162 29z m-2211 -1184 c179 -105 174 -103 386 -105 241 -2
258 -10 299 -149 33 -108 33 -115 11 -137 -11 -11 -26 -20 -32 -21 -7 0 -62
-2 -123 -4 -155 -5 -229 -13 -360 -40 -195 -41 -335 -50 -407 -26 -41 14 -86
54 -100 91 -35 92 31 360 108 437 39 39 90 29 218 -46z m875 -1100 c125 -63
359 -236 431 -317 52 -60 69 -108 65 -186 -6 -123 -12 -131 -133 -192 -59 -30
-125 -63 -147 -74 -22 -12 -101 -45 -175 -73 -125 -49 -142 -53 -231 -55 -70
-2 -114 3 -165 17 -38 11 -86 24 -106 30 -49 13 -78 42 -111 108 -31 64 -32
72 -12 169 23 107 50 181 121 329 68 142 111 199 181 240 99 58 172 59 282 4z
m1185 -1071 c72 -52 157 -113 190 -135 138 -94 181 -149 173 -219 -9 -69 -111
-333 -167 -431 -33 -57 -127 -147 -217 -207 -67 -44 -200 -99 -244 -101 -30
-2 -34 2 -45 38 -6 22 -21 56 -32 75 -11 19 -23 53 -27 75 -9 53 -74 137 -131
171 -89 52 -138 7 -148 -136 -5 -83 -22 -139 -58 -193 -39 -60 -69 -57 -174
18 -35 25 -67 45 -73 45 -6 0 -11 4 -11 8 0 12 -130 80 -195 102 -32 11 -67
30 -80 42 -12 13 -49 39 -82 59 -82 49 -162 174 -179 278 -10 63 55 224 109
271 12 11 72 50 132 88 61 37 146 94 189 125 96 70 168 104 238 116 29 4 199
8 377 8 l324 -1 131 -96z"/>
</g>
</svg>
